<?xml version="1.0" encoding="utf-8"?>
<!-- Generator: Adobe Illustrator 15.1.0, SVG Export Plug-In . SVG Version: 6.00 Build 0)  -->
<!DOCTYPE svg PUBLIC "-//W3C//DTD SVG 1.1//EN" "http://www.w3.org/Graphics/SVG/1.1/DTD/svg11.dtd">
<svg version="1.1" id="Layer_1" xmlns="http://www.w3.org/2000/svg" xmlns:xlink="http://www.w3.org/1999/xlink" x="0px" y="0px"
	 width="502.348px" height="228.467px" viewBox="0 0 502.348 228.467" enable-background="new 0 0 502.348 228.467"
	 xml:space="preserve">
<rect x="8.697" y="10.87" fill="#666766" width="92.39" height="208.695"/>
<g>
	<defs>
		<rect id="SVGID_1_" width="502.348" height="228.467"/>
	</defs>
	<clipPath id="SVGID_2_">
		<use xlink:href="#SVGID_1_"  overflow="visible"/>
	</clipPath>
	<g clip-path="url(#SVGID_2_)">
		<path fill="#8DC63F" d="M90.317,166.614h-20.02v-37.422h-0.616c-1.747,2.671-4.62,4.801-8.624,6.391
			c-4.004,1.591-8.369,2.388-13.09,2.388c-4.724,0-9.086-0.823-13.09-2.464c-4.004-1.642-7.445-4.081-10.318-7.315
			c-2.875-3.234-5.135-7.315-6.776-12.243c-1.644-4.928-2.464-10.626-2.464-17.094c0-6.776,1.051-12.782,3.157-18.018
			c2.103-5.236,5.056-9.625,8.855-13.167c3.797-3.542,8.34-6.21,13.629-8.008c5.286-1.795,11.165-2.695,17.633-2.695
			c3.181,0,6.338,0.13,9.471,0.385c3.13,0.257,6.107,0.616,8.932,1.078c2.823,0.462,5.39,0.977,7.7,1.54
			c2.31,0.566,4.182,1.104,5.621,1.617V166.614z M53.357,121.03c3.9,0,7.416-0.871,10.549-2.618c3.13-1.744,5.26-4.362,6.391-7.854
			V76.371c-1.54-0.821-3.465-1.437-5.775-1.848c-2.31-0.409-4.697-0.616-7.161-0.616c-6.468,0-11.653,2.055-15.554,6.16
			c-3.903,4.107-5.852,10.113-5.852,18.018c0,7.496,1.54,13.193,4.62,17.094C43.655,119.081,47.915,121.03,53.357,121.03z"/>
	</g>
	<path clip-path="url(#SVGID_2_)" fill="none" stroke="#BCBEC0" stroke-miterlimit="10" d="M40.575,115.178
		c-3.08-3.901-4.62-9.598-4.62-17.094c0-7.905,1.949-13.911,5.852-18.018c3.901-4.105,9.086-6.16,15.554-6.16
		c2.464,0,4.851,0.207,7.161,0.616c2.31,0.412,4.235,1.027,5.775,1.848v34.188c-1.131,3.491-3.261,6.109-6.391,7.854
		c-3.133,1.747-6.649,2.618-10.549,2.618C47.915,121.03,43.655,119.081,40.575,115.178z M90.317,61.586
		c-1.439-0.513-3.311-1.051-5.621-1.617c-2.31-0.563-4.878-1.078-7.7-1.54c-2.825-0.462-5.802-0.821-8.932-1.078
		c-3.133-0.255-6.29-0.385-9.471-0.385c-6.468,0-12.347,0.9-17.633,2.695c-5.289,1.798-9.832,4.466-13.629,8.008
		c-3.8,3.542-6.752,7.931-8.855,13.167c-2.106,5.236-3.157,11.242-3.157,18.018c0,6.468,0.82,12.166,2.464,17.094
		c1.641,4.928,3.9,9.009,6.776,12.243c2.873,3.234,6.314,5.674,10.318,7.315c4.004,1.641,8.366,2.464,13.09,2.464
		c4.721,0,9.086-0.797,13.09-2.388c4.004-1.59,6.877-3.72,8.624-6.391h0.616v37.422h20.02V61.586z"/>
	<g clip-path="url(#SVGID_2_)">
		<path fill="#666766" d="M111.756,98.258h18.04v16.236c0.328,0.11,0.656,0.22,0.984,0.328c2.514,1.095,5.273,1.996,8.282,2.706
			c3.006,0.713,6.204,1.066,9.594,1.066c6.122,0,10.878-1.23,14.268-3.69c3.388-2.46,5.084-5.766,5.084-9.922
			c0-3.716-1.394-6.724-4.182-9.02s-6.232-4.318-10.332-6.068c-4.1-1.748-8.584-3.498-13.448-5.248
			c-4.866-1.748-9.348-3.961-13.448-6.642c-4.1-2.678-7.544-6.04-10.332-10.086c-2.788-4.043-4.182-9.292-4.182-15.744
			c0-4.92,0.956-9.43,2.87-13.53c1.912-4.1,4.592-7.626,8.036-10.578s7.57-5.248,12.382-6.888c4.81-1.64,10.168-2.46,16.072-2.46
			c6.667,0,13.228,0.603,19.68,1.804c6.45,1.205,11.588,2.844,15.416,4.92v33.292H168.5V40.53c-0.328,0-0.656-0.054-0.984-0.164
			c-2.406-0.656-5.002-1.173-7.79-1.558c-2.788-0.382-5.55-0.574-8.282-0.574c-5.248,0-9.376,1.041-12.382,3.116
			c-3.008,2.078-4.51,4.866-4.51,8.364c0,3.608,1.394,6.56,4.182,8.856c2.788,2.296,6.232,4.375,10.332,6.232
			c4.1,1.86,8.582,3.718,13.448,5.576c4.864,1.86,9.348,4.128,13.448,6.806c4.1,2.68,7.544,6.042,10.332,10.086
			c2.788,4.046,4.182,9.13,4.182,15.252c0,5.904-1.094,11.07-3.28,15.498c-2.188,4.428-5.248,8.146-9.184,11.152
			c-3.936,3.008-8.584,5.248-13.94,6.724c-5.358,1.476-11.152,2.214-17.384,2.214c-4.156,0-8.01-0.328-11.562-0.984
			c-3.554-0.655-6.834-1.476-9.84-2.46c-3.008-0.983-5.658-2.021-7.954-3.115c-2.296-1.092-4.156-2.022-5.576-2.788V98.258z"/>
		<path fill="#666766" d="M241.478,87.926h-11.644v47.888h-22.468v-114.8h22.468v46.904h11.644l26.24-46.904h25.584l-32.308,55.432
			l36.408,59.368h-27.716L241.478,87.926z"/>
		<path fill="#666766" d="M303.797,78.415c0-9.292,0.873-17.656,2.624-25.092c1.747-7.434,4.428-13.694,8.036-18.778
			c3.607-5.084,8.117-8.992,13.529-11.726c5.412-2.731,11.78-4.1,19.106-4.1c7.872,0,14.539,1.476,20.008,4.428
			c5.466,2.952,9.922,7.052,13.366,12.3c3.443,5.248,5.958,11.537,7.544,18.86c1.583,7.326,2.378,15.362,2.378,24.108
			c0,18.696-3.582,33.32-10.742,43.87c-7.162,10.553-18.015,15.826-32.554,15.826c-7.872,0-14.57-1.476-20.09-4.428
			c-5.522-2.952-10.004-7.052-13.448-12.3s-5.933-11.534-7.462-18.86C304.561,95.199,303.797,87.163,303.797,78.415z
			 M327.412,78.415c0,5.576,0.246,10.77,0.738,15.58c0.492,4.812,1.42,8.994,2.788,12.546c1.366,3.554,3.334,6.37,5.904,8.446
			c2.567,2.078,5.985,3.116,10.25,3.116c3.825,0,6.995-0.792,9.512-2.378c2.514-1.584,4.536-4.018,6.068-7.298
			c1.529-3.28,2.596-7.405,3.197-12.382c0.6-4.974,0.902-10.85,0.902-17.63c0-5.356-0.192-10.44-0.574-15.252
			c-0.384-4.81-1.258-9.02-2.624-12.628c-1.368-3.608-3.361-6.478-5.985-8.61c-2.624-2.132-6.125-3.198-10.496-3.198
			c-7.654,0-12.849,3.336-15.58,10.004C328.778,55.4,327.412,65.294,327.412,78.415z"/>
		<path fill="#666766" d="M406.951,98.258h18.04v16.236c0.328,0.11,0.656,0.22,0.983,0.328c2.515,1.095,5.274,1.996,8.282,2.706
			c3.006,0.713,6.204,1.066,9.594,1.066c6.122,0,10.878-1.23,14.269-3.69c3.388-2.46,5.084-5.766,5.084-9.922
			c0-3.716-1.395-6.724-4.182-9.02c-2.788-2.296-6.232-4.318-10.332-6.068c-4.101-1.748-8.585-3.498-13.448-5.248
			c-4.866-1.748-9.349-3.961-13.448-6.642c-4.1-2.678-7.544-6.04-10.332-10.086c-2.788-4.043-4.182-9.292-4.182-15.744
			c0-4.92,0.955-9.43,2.87-13.53c1.911-4.1,4.592-7.626,8.035-10.578c3.444-2.952,7.57-5.248,12.383-6.888
			c4.81-1.64,10.168-2.46,16.071-2.46c6.668,0,13.228,0.603,19.681,1.804c6.449,1.205,11.587,2.844,15.416,4.92v33.292h-18.04V40.53
			c-0.328,0-0.656-0.054-0.984-0.164c-2.406-0.656-5.002-1.173-7.79-1.558c-2.788-0.382-5.55-0.574-8.282-0.574
			c-5.248,0-9.376,1.041-12.382,3.116c-3.008,2.078-4.51,4.866-4.51,8.364c0,3.608,1.394,6.56,4.182,8.856s6.232,4.375,10.332,6.232
			c4.101,1.86,8.582,3.718,13.448,5.576c4.863,1.86,9.348,4.128,13.448,6.806c4.1,2.68,7.544,6.042,10.332,10.086
			c2.788,4.046,4.182,9.13,4.182,15.252c0,5.904-1.094,11.07-3.28,15.498c-2.188,4.428-5.248,8.146-9.184,11.152
			c-3.936,3.008-8.584,5.248-13.94,6.724c-5.357,1.476-11.151,2.214-17.384,2.214c-4.156,0-8.01-0.328-11.562-0.984
			c-3.555-0.655-6.834-1.476-9.84-2.46c-3.009-0.983-5.658-2.021-7.954-3.115c-2.296-1.092-4.156-2.022-5.576-2.788V98.258z"/>
	</g>
</g>
<g>
	<path fill="#8DC63F" d="M137.722,215.825h-8.806v-17.39h-0.296c-0.691,1.086-1.591,1.961-2.701,2.627s-2.603,0.999-4.477,0.999
		c-3.651,0-6.488-1.554-8.51-4.662c-2.023-3.108-3.034-7.818-3.034-14.134c0-6.61,1.406-11.605,4.218-14.985
		c2.812-3.379,6.808-5.069,11.988-5.069c2.22,0,4.403,0.223,6.549,0.666c2.146,0.444,3.835,0.938,5.069,1.48V215.825z
		 M128.916,171.943c-1.036-0.592-2.418-0.888-4.144-0.888c-1.924,0-3.367,0.925-4.329,2.774c-0.962,1.851-1.443,4.873-1.443,9.065
		c0,7.548,1.676,11.322,5.032,11.322c1.332,0,2.38-0.333,3.145-0.999c0.764-0.666,1.344-1.615,1.739-2.85V171.943z"/>
	<path fill="#8DC63F" d="M152.521,164.025v22.126c0,2.911,0.271,4.934,0.814,6.068c0.542,1.135,1.529,1.702,2.96,1.702
		c1.381,0,2.541-0.506,3.478-1.518c0.937-1.011,1.603-2.231,1.998-3.663v-24.716h8.806v25.752c0,2.023,0.074,4.009,0.222,5.957
		c0.148,1.949,0.418,3.713,0.814,5.291h-6.66l-1.554-5.032h-0.222c-0.938,1.728-2.208,3.158-3.811,4.292
		c-1.604,1.135-3.589,1.702-5.957,1.702c-1.53,0-2.886-0.21-4.07-0.629c-1.184-0.419-2.195-1.147-3.034-2.183
		c-0.839-1.036-1.48-2.454-1.924-4.256c-0.444-1.8-0.666-4.081-0.666-6.845v-24.05H152.521z"/>
	<path fill="#8DC63F" d="M177.089,166.245c1.48-0.888,3.33-1.603,5.55-2.146c2.22-0.543,4.736-0.814,7.548-0.814
		c4.192,0,7.116,1.086,8.769,3.256c1.652,2.172,2.479,5.254,2.479,9.25c0,2.319-0.063,4.602-0.185,6.846
		c-0.124,2.245-0.21,4.439-0.259,6.586c-0.05,2.146-0.013,4.218,0.111,6.216c0.123,1.998,0.456,3.885,0.999,5.661h-7.178
		l-1.406-4.515h-0.296c-0.79,1.432-1.9,2.616-3.33,3.553c-1.432,0.937-3.232,1.405-5.402,1.405c-2.911,0-5.205-0.973-6.882-2.923
		c-1.678-1.948-2.516-4.551-2.516-7.807c0-4.44,1.579-7.597,4.736-9.472c3.156-1.875,7.424-2.664,12.802-2.368
		c0.247-2.86,0.062-4.933-0.555-6.216c-0.618-1.282-1.937-1.925-3.959-1.925c-1.48,0-3.01,0.174-4.588,0.519
		c-1.579,0.346-2.985,0.839-4.218,1.479L177.089,166.245z M187.671,193.995c1.332,0,2.417-0.333,3.256-0.999
		c0.838-0.666,1.454-1.393,1.85-2.183v-6.142c-1.135-0.148-2.22-0.173-3.256-0.074c-1.036,0.1-1.949,0.321-2.738,0.666
		c-0.79,0.346-1.419,0.851-1.887,1.517c-0.469,0.666-0.703,1.518-0.703,2.553c0,1.53,0.308,2.689,0.925,3.479
		C185.735,193.602,186.586,193.995,187.671,193.995z"/>
	<path fill="#8DC63F" d="M216.531,189.037c0,1.728,0.172,2.96,0.518,3.7c0.345,0.74,0.913,1.11,1.702,1.11
		c0.444,0,0.899-0.049,1.369-0.148c0.468-0.098,0.999-0.271,1.591-0.518l0.814,7.104c-0.592,0.396-1.604,0.765-3.034,1.11
		c-1.432,0.345-2.886,0.518-4.366,0.518c-2.467,0-4.317-0.617-5.55-1.85c-1.234-1.232-1.85-3.33-1.85-6.29v-44.548h8.806V189.037z"
		/>
	<path fill="#8DC63F" d="M225.263,153.592c0-1.48,0.468-2.701,1.406-3.663c0.937-0.962,2.269-1.443,3.996-1.443
		c1.726,0,3.108,0.47,4.144,1.406c1.036,0.938,1.554,2.171,1.554,3.7s-0.518,2.737-1.554,3.626
		c-1.036,0.888-2.418,1.332-4.144,1.332c-1.728,0-3.06-0.456-3.996-1.369C225.731,156.269,225.263,155.071,225.263,153.592z
		 M226.298,164.025h8.806v37h-8.806V164.025z"/>
	<path fill="#8DC63F" d="M239.322,164.025h4.07v-6.956l8.806-2.738v9.694h7.178v7.844h-7.178v16.132
		c0,2.122,0.209,3.626,0.629,4.515c0.418,0.888,1.171,1.332,2.257,1.332c0.74,0,1.406-0.074,1.998-0.223
		c0.592-0.147,1.232-0.369,1.924-0.666l1.11,7.03c-1.086,0.544-2.344,0.999-3.774,1.369c-1.432,0.37-2.936,0.555-4.514,0.555
		c-2.812,0-4.921-0.813-6.327-2.441c-1.406-1.628-2.109-4.366-2.109-8.214v-19.389h-4.07V164.025z"/>
	<path fill="#8DC63F" d="M274.102,184.819l0.962,5.772h0.369l0.666-5.847l4.292-20.72h9.028l-9.25,33.374
		c-0.839,2.911-1.628,5.524-2.368,7.844c-0.739,2.318-1.529,4.292-2.368,5.92s-1.788,2.874-2.849,3.737
		c-1.062,0.862-2.331,1.295-3.811,1.295c-1.036,0-2.035-0.086-2.997-0.257s-1.789-0.453-2.479-0.844l1.48-7.483
		c0.641,0.246,1.295,0.357,1.961,0.333c0.666-0.025,1.282-0.274,1.85-0.746c0.566-0.474,1.073-1.209,1.518-2.206
		c0.443-0.999,0.813-2.32,1.109-3.967l-12.876-37h10.582L274.102,184.819z"/>
	<path fill="#8DC63F" d="M326.639,199.027c-1.233,0.987-2.714,1.728-4.439,2.22c-1.728,0.493-3.454,0.74-5.181,0.74
		c-2.516,0-4.625-0.457-6.326-1.369c-1.702-0.912-3.097-2.22-4.182-3.922c-1.086-1.702-1.862-3.748-2.331-6.142
		c-0.469-2.393-0.703-5.069-0.703-8.029c0-6.462,1.159-11.322,3.479-14.578c2.318-3.256,5.722-4.884,10.212-4.884
		c2.22,0,4.033,0.197,5.438,0.592c1.406,0.396,2.651,0.888,3.737,1.48l-2.072,7.325c-0.888-0.443-1.738-0.776-2.553-0.999
		c-0.813-0.222-1.788-0.333-2.923-0.333c-2.072,0-3.626,0.901-4.662,2.701c-1.036,1.802-1.554,4.699-1.554,8.695
		c0,3.355,0.529,6.094,1.591,8.214c1.061,2.122,2.75,3.183,5.069,3.183c1.232,0,2.281-0.16,3.145-0.481
		c0.862-0.32,1.665-0.728,2.405-1.221L326.639,199.027z"/>
	<path fill="#8DC63F" d="M328.488,182.525c0-6.561,1.282-11.444,3.849-14.652c2.564-3.206,6.142-4.81,10.729-4.81
		c4.933,0,8.608,1.628,11.026,4.884c2.416,3.256,3.626,8.116,3.626,14.578c0,6.611-1.283,11.507-3.848,14.689
		c-2.566,3.182-6.168,4.772-10.805,4.772C333.348,201.987,328.488,195.501,328.488,182.525z M337.591,182.525
		c0,3.7,0.418,6.562,1.258,8.584c0.838,2.023,2.244,3.034,4.218,3.034c1.875,0,3.268-0.875,4.182-2.627
		c0.912-1.751,1.368-4.748,1.368-8.991c0-3.798-0.419-6.685-1.258-8.658c-0.839-1.973-2.27-2.96-4.292-2.96
		c-1.728,0-3.07,0.877-4.033,2.627C338.071,175.286,337.591,178.283,337.591,182.525z"/>
	<path fill="#8DC63F" d="M381.103,201.025v-22.496c0-2.713-0.321-4.612-0.962-5.698c-0.642-1.084-1.728-1.628-3.256-1.628
		c-1.284,0-2.394,0.396-3.33,1.185c-0.938,0.789-1.604,1.775-1.998,2.96v25.678h-8.807v-37h7.03l1.036,4.292h0.222
		c0.889-1.431,2.097-2.651,3.626-3.663c1.529-1.011,3.527-1.517,5.994-1.517c1.48,0,2.8,0.222,3.959,0.666
		c1.159,0.443,2.134,1.172,2.923,2.183c0.789,1.012,1.381,2.368,1.776,4.07c0.395,1.702,0.592,3.811,0.592,6.327v24.642H381.103z"/>
	<path fill="#8DC63F" d="M393.089,164.025h4.07v-6.956l8.806-2.738v9.694h7.178v7.844h-7.178v16.132
		c0,2.122,0.209,3.626,0.629,4.515c0.419,0.888,1.172,1.332,2.257,1.332c0.74,0,1.406-0.074,1.998-0.223
		c0.593-0.147,1.232-0.369,1.925-0.666l1.109,7.03c-1.086,0.544-2.344,0.999-3.773,1.369c-1.432,0.37-2.937,0.555-4.515,0.555
		c-2.812,0-4.921-0.813-6.327-2.441c-1.405-1.628-2.108-4.366-2.108-8.214v-19.389h-4.07V164.025z"/>
	<path fill="#8DC63F" d="M434.973,172.758c-1.185-0.444-2.271-0.666-3.257-0.666c-1.332,0-2.479,0.369-3.44,1.109
		s-1.616,1.776-1.961,3.108v24.716h-8.807v-37h6.734l1.036,4.44h0.296c0.641-1.629,1.565-2.898,2.775-3.812
		c1.208-0.912,2.602-1.369,4.181-1.369c1.184,0,2.343,0.248,3.478,0.74L434.973,172.758z"/>
	<path fill="#8DC63F" d="M437.857,182.525c0-6.561,1.282-11.444,3.849-14.652c2.564-3.206,6.142-4.81,10.729-4.81
		c4.933,0,8.608,1.628,11.026,4.884c2.416,3.256,3.626,8.116,3.626,14.578c0,6.611-1.283,11.507-3.848,14.689
		c-2.566,3.182-6.168,4.772-10.805,4.772C442.717,201.987,437.857,195.501,437.857,182.525z M446.96,182.525
		c0,3.7,0.418,6.562,1.258,8.584c0.838,2.023,2.244,3.034,4.218,3.034c1.875,0,3.268-0.875,4.182-2.627
		c0.912-1.751,1.368-4.748,1.368-8.991c0-3.798-0.419-6.685-1.258-8.658c-0.839-1.973-2.27-2.96-4.292-2.96
		c-1.728,0-3.07,0.877-4.033,2.627C447.44,175.286,446.96,178.283,446.96,182.525z"/>
	<path fill="#8DC63F" d="M481.073,189.037c0,1.728,0.173,2.96,0.519,3.7c0.345,0.74,0.912,1.11,1.702,1.11
		c0.443,0,0.899-0.049,1.368-0.148c0.469-0.098,0.999-0.271,1.592-0.518l0.813,7.104c-0.592,0.396-1.604,0.765-3.034,1.11
		c-1.431,0.345-2.886,0.518-4.365,0.518c-2.468,0-4.318-0.617-5.551-1.85c-1.233-1.232-1.85-3.33-1.85-6.29v-44.548h8.806V189.037z"
		/>
</g>
</svg>
