<?xml version="1.0" encoding="UTF-8" standalone="no"?>
<!-- Created with Inkscape (http://www.inkscape.org/) -->

<svg
   xmlns:dc="http://purl.org/dc/elements/1.1/"
   xmlns:cc="http://creativecommons.org/ns#"
   xmlns:rdf="http://www.w3.org/1999/02/22-rdf-syntax-ns#"
   xmlns:svg="http://www.w3.org/2000/svg"
   xmlns="http://www.w3.org/2000/svg"
   xmlns:sodipodi="http://sodipodi.sourceforge.net/DTD/sodipodi-0.dtd"
   xmlns:inkscape="http://www.inkscape.org/namespaces/inkscape"
   width="210mm"
   height="297mm"
   id="svg2"
   version="1.1"
   inkscape:version="0.48.4 r9939"
   sodipodi:docname="qskos_logo.svg">
  <defs
     id="defs4" />
  <sodipodi:namedview
     id="base"
     pagecolor="#ffffff"
     bordercolor="#666666"
     borderopacity="1.0"
     inkscape:pageopacity="0.0"
     inkscape:pageshadow="2"
     inkscape:zoom="0.7"
     inkscape:cx="292.21949"
     inkscape:cy="599.9546"
     inkscape:document-units="px"
     inkscape:current-layer="layer1"
     showgrid="false"
     inkscape:window-width="1265"
     inkscape:window-height="933"
     inkscape:window-x="1824"
     inkscape:window-y="51"
     inkscape:window-maximized="0"
     showguides="true"
     inkscape:guide-bbox="true">
    <sodipodi:guide
       orientation="1,0"
       position="133.34014,683.11566"
       id="guide5458" />
  </sodipodi:namedview>
  <metadata
     id="metadata7">
    <rdf:RDF>
      <cc:Work
         rdf:about="">
        <dc:format>image/svg+xml</dc:format>
        <dc:type
           rdf:resource="http://purl.org/dc/dcmitype/StillImage" />
        <dc:title></dc:title>
      </cc:Work>
    </rdf:RDF>
  </metadata>
  <g
     inkscape:label="Ebene 1"
     inkscape:groupmode="layer"
     id="layer1">
    <path
       inkscape:connector-curvature="0"
       id="path4044"
       style="font-size:102.26006317px;font-style:normal;font-weight:bold;line-height:125%;letter-spacing:0px;word-spacing:0px;fill:#000000;fill-opacity:1;stroke:none;font-family:Sans;-inkscape-font-specification:Sans Bold"
       d="m 290.43981,324.35917 0,15.77841 c -4.09446,-1.83077 -8.08899,-3.21222 -11.98361,-4.14433 -3.89471,-0.932 -7.57301,-1.39803 -11.03489,-1.39809 -4.59375,6e-5 -7.9891,0.63253 -10.18607,1.8974 -2.19702,1.265 -3.29551,3.22897 -3.29549,5.89194 -2e-5,1.99732 0.73231,3.56184 2.197,4.69358 1.49792,1.09854 4.19423,2.04724 8.08893,2.8461 l 8.18879,1.64775 c 8.28861,1.66443 14.18054,4.1943 17.67581,7.58961 3.49516,3.39539 5.24276,8.22211 5.24283,14.48019 -7e-5,8.22209 -2.44672,14.34704 -7.33996,18.37485 -4.86007,3.99454 -12.29988,5.9918 -22.31945,5.9918 -4.7269,0 -9.4704,-0.44938 -14.23053,-1.34815 -4.76017,-0.89877 -9.52032,-2.23028 -14.28046,-3.99454 l 0,-16.22779 c 4.76014,2.52989 9.35385,4.44393 13.78114,5.74214 4.46054,1.26495 8.75466,1.89742 12.88238,1.89741 4.19422,10e-6 7.40648,-0.69903 9.63681,-2.09713 2.23023,-1.39808 3.34537,-3.39534 3.34542,-5.9918 -5e-5,-2.33013 -0.76567,-4.12767 -2.29686,-5.39263 -1.49799,-1.2649 -4.51053,-2.39669 -9.03763,-3.39535 l -7.43982,-1.64774 c -7.45648,-1.59779 -12.91567,-4.1443 -16.37759,-7.63955 -3.42865,-3.49517 -5.14297,-8.20539 -5.14296,-14.13066 -1e-5,-7.42312 2.39671,-13.13197 7.19016,-17.12657 4.79342,-3.99446 11.68399,-5.99172 20.67171,-5.9918 4.09436,8e-5 8.30526,0.31631 12.63272,0.9487 4.32736,0.59926 8.80456,1.51467 13.43162,2.74625"
       inkscape:export-filename="/home/christian/Downloads/qskos_logo.png"
       inkscape:export-xdpi="178.53331"
       inkscape:export-ydpi="178.53331" />
    <path
       inkscape:connector-curvature="0"
       id="path4046"
       style="font-size:102.26006317px;font-style:normal;font-weight:bold;line-height:125%;letter-spacing:0px;word-spacing:0px;fill:#000000;fill-opacity:1;stroke:none;font-family:Sans;-inkscape-font-specification:Sans Bold"
       d="m 312.25995,322.01238 19.22369,0 0,27.21276 27.71208,-27.21276 22.31946,0 -35.90087,35.30169 39.59581,39.24629 -24.06706,0 -29.65942,-29.35982 0,29.35982 -19.22369,0 0,-74.54798"
       inkscape:export-filename="/home/christian/Downloads/qskos_logo.png"
       inkscape:export-xdpi="178.53331"
       inkscape:export-ydpi="178.53331" />
    <path
       inkscape:connector-curvature="0"
       id="path4050"
       style="font-size:102.26006317px;font-style:normal;font-weight:bold;line-height:125%;letter-spacing:0px;word-spacing:0px;fill:#000000;fill-opacity:1;stroke:none;font-family:Sans;-inkscape-font-specification:Sans Bold"
       d="m 525.71783,324.35917 0,15.77841 c -4.09445,-1.83077 -8.08898,-3.21222 -11.9836,-4.14433 -3.89472,-0.932 -7.57301,-1.39803 -11.0349,-1.39809 -4.59375,6e-5 -7.9891,0.63253 -10.18606,1.8974 -2.19702,1.265 -3.29552,3.22897 -3.29549,5.89194 -3e-5,1.99732 0.73231,3.56184 2.19699,4.69358 1.49792,1.09854 4.19423,2.04724 8.08893,2.8461 l 8.1888,1.64775 c 8.2886,1.66443 14.18054,4.1943 17.67581,7.58961 3.49515,3.39539 5.24276,8.22211 5.24283,14.48019 -7e-5,8.22209 -2.44672,14.34704 -7.33996,18.37485 -4.86007,3.99454 -12.29988,5.9918 -22.31946,5.9918 -4.72689,0 -9.4704,-0.44938 -14.23052,-1.34815 -4.76017,-0.89877 -9.52032,-2.23028 -14.28046,-3.99454 l 0,-16.22779 c 4.76014,2.52989 9.35385,4.44393 13.78114,5.74214 4.46054,1.26495 8.75466,1.89742 12.88237,1.89741 4.19422,10e-6 7.40649,-0.69903 9.63681,-2.09713 2.23024,-1.39808 3.34538,-3.39534 3.34543,-5.9918 -5e-5,-2.33013 -0.76567,-4.12767 -2.29686,-5.39263 -1.498,-1.2649 -4.51054,-2.39669 -9.03763,-3.39535 l -7.43982,-1.64774 c -7.45649,-1.59779 -12.91568,-4.1443 -16.37759,-7.63955 -3.42865,-3.49517 -5.14297,-8.20539 -5.14296,-14.13066 -10e-6,-7.42312 2.39671,-13.13197 7.19016,-17.12657 4.79342,-3.99446 11.68398,-5.99172 20.67171,-5.9918 4.09436,8e-5 8.30526,0.31631 12.63271,0.9487 4.32736,0.59926 8.80456,1.51467 13.43162,2.74625"
       inkscape:export-filename="/home/christian/Downloads/qskos_logo.png"
       inkscape:export-xdpi="178.53331"
       inkscape:export-ydpi="178.53331" />
    <path
       inkscape:connector-curvature="0"
       id="path4169"
       style="font-size:47.30653381px;font-style:normal;font-weight:normal;line-height:125%;letter-spacing:0px;word-spacing:0px;fill:#000000;fill-opacity:1;stroke:none;font-family:Sans"
       d="m 404.1909,436.24452 0,-15.66105 4.25019,0 0,15.49936 c 0,2.44849 0.47737,4.2887 1.43214,5.52063 0.95474,1.21655 2.38687,1.82482 4.29639,1.82482 2.29447,0 4.10389,-0.73147 5.42824,-2.1944 1.33971,-1.46292 2.00958,-3.45712 2.0096,-5.98261 l 0,-14.6678 4.2502,0 0,25.87076 -4.2502,0 0,-3.97301 c -1.03177,1.57073 -2.23291,2.74107 -3.60342,3.51103 -1.35516,0.75457 -2.93358,1.13185 -4.73528,1.13185 -2.97206,0 -5.22805,-0.92396 -6.76797,-2.77187 -1.53993,-1.84791 -2.3099,-4.55047 -2.30989,-8.10771 m 10.69479,-16.28472 0,0"
       inkscape:export-filename="/home/christian/Downloads/qskos_logo.png"
       inkscape:export-xdpi="178.53331"
       inkscape:export-ydpi="178.53331" />
    <path
       inkscape:connector-curvature="0"
       id="path4171"
       style="font-size:47.30653381px;font-style:normal;font-weight:normal;line-height:125%;letter-spacing:0px;word-spacing:0px;fill:#000000;fill-opacity:1;stroke:none;font-family:Sans"
       d="m 446.41567,433.44955 c -3.43404,2e-5 -5.81323,0.3927 -7.13755,1.17805 -1.32435,0.78537 -1.98652,2.12511 -1.98651,4.0192 -10e-6,1.50914 0.49277,2.71028 1.47833,3.60343 1.00094,0.87776 2.35608,1.31664 4.06541,1.31664 2.35607,0 4.24248,-0.83156 5.65922,-2.49468 1.43212,-1.67851 2.14818,-3.90371 2.1482,-6.67558 l 0,-0.94706 -4.2271,0 m 8.4773,-1.75551 0,14.76019 -4.2502,0 0,-3.92681 c -0.97017,1.57073 -2.17901,2.73337 -3.62652,3.48793 -1.44755,0.73917 -3.21846,1.10875 -5.31275,1.10875 -2.64868,0 -4.75838,-0.73917 -6.3291,-2.2175 -1.55533,-1.49372 -2.33299,-3.48792 -2.33299,-5.98261 0,-2.91045 0.97015,-5.10484 2.91047,-6.58318 1.95569,-1.47832 4.86615,-2.21748 8.73138,-2.2175 l 5.95951,0 0,-0.41578 c -2e-5,-1.95568 -0.64679,-3.46481 -1.94031,-4.52738 -1.27815,-1.07793 -3.07986,-1.6169 -5.40514,-1.61692 -1.47834,2e-5 -2.91817,0.17711 -4.31949,0.53127 -1.40134,0.35421 -2.74877,0.88548 -4.04231,1.59383 l 0,-3.92682 c 1.55532,-0.60054 3.06445,-1.04712 4.52739,-1.33973 1.46292,-0.30796 2.88735,-0.46195 4.27329,-0.46198 3.74201,3e-5 6.53697,0.97018 8.3849,2.91046 1.84789,1.94033 2.77184,4.88159 2.77187,8.82378"
       inkscape:export-filename="/home/christian/Downloads/qskos_logo.png"
       inkscape:export-xdpi="178.53331"
       inkscape:export-ydpi="178.53331" />
    <path
       inkscape:connector-curvature="0"
       id="path4173"
       style="font-size:47.30653381px;font-style:normal;font-weight:normal;line-height:125%;letter-spacing:0px;word-spacing:0px;fill:#000000;fill-opacity:1;stroke:none;font-family:Sans"
       d="m 463.67055,410.51235 4.2502,0 0,35.94188 -4.2502,0 0,-35.94188"
       inkscape:export-filename="/home/christian/Downloads/qskos_logo.png"
       inkscape:export-xdpi="178.53331"
       inkscape:export-ydpi="178.53331" />
    <path
       inkscape:connector-curvature="0"
       id="path4175"
       style="font-size:47.30653381px;font-style:normal;font-weight:normal;line-height:125%;letter-spacing:0px;word-spacing:0px;fill:#000000;fill-opacity:1;stroke:none;font-family:Sans"
       d="m 476.79072,420.58347 4.2502,0 0,25.87076 -4.2502,0 0,-25.87076 m 0,-10.07112 4.2502,0 0,5.38204 -4.2502,0 0,-5.38204"
       inkscape:export-filename="/home/christian/Downloads/qskos_logo.png"
       inkscape:export-xdpi="178.53331"
       inkscape:export-ydpi="178.53331" />
    <path
       inkscape:connector-curvature="0"
       id="path4177"
       style="font-size:47.30653381px;font-style:normal;font-weight:normal;line-height:125%;letter-spacing:0px;word-spacing:0px;fill:#000000;fill-opacity:1;stroke:none;font-family:Sans"
       d="m 494.11489,413.23802 0,7.34545 8.75448,0 0,3.30314 -8.75448,0 0,14.04413 c -10e-6,2.1097 0.28488,3.46484 0.85466,4.0654 0.58516,0.60058 1.76321,0.90086 3.53413,0.90086 l 4.36569,0 0,3.55723 -4.36569,0 c -3.28005,0 -5.54374,-0.60827 -6.79107,-1.82481 -1.24735,-1.23194 -1.87102,-3.46483 -1.87101,-6.69868 l 0,-14.04413 -3.11835,0 0,-3.30314 3.11835,0 0,-7.34545 4.27329,0"
       inkscape:export-filename="/home/christian/Downloads/qskos_logo.png"
       inkscape:export-xdpi="178.53331"
       inkscape:export-ydpi="178.53331" />
    <path
       inkscape:connector-curvature="0"
       id="path4179"
       style="font-size:47.30653381px;font-style:normal;font-weight:normal;line-height:125%;letter-spacing:0px;word-spacing:0px;fill:#000000;fill-opacity:1;stroke:none;font-family:Sans"
       d="m 519.24648,448.85652 c -1.20116,3.07984 -2.3715,5.08944 -3.51103,6.02881 -1.13956,0.93934 -2.66408,1.40902 -4.57358,1.40903 l -3.39554,0 0,-3.55723 2.49468,0 c 1.17034,-10e-6 2.07889,-0.27719 2.72567,-0.83156 0.64676,-0.55438 1.36282,-1.86331 2.1482,-3.92681 l 0.76226,-1.94031 -10.4638,-25.45498 4.50429,0 8.08461,20.23463 8.08461,-20.23463 4.50429,0 -11.36466,28.27305"
       inkscape:export-filename="/home/christian/Downloads/qskos_logo.png"
       inkscape:export-xdpi="178.53331"
       inkscape:export-ydpi="178.53331" />
    <path
       style="fill:none;stroke:#000000;stroke-width:4;stroke-linecap:square;stroke-linejoin:miter;stroke-miterlimit:4;stroke-opacity:1;stroke-dasharray:none"
       d="m 394.18543,421.65832 0,41.42857"
       id="path4206"
       inkscape:connector-curvature="0"
       inkscape:export-filename="/home/christian/Downloads/qskos_logo.png"
       inkscape:export-xdpi="178.53331"
       inkscape:export-ydpi="178.53331" />
    <path
       inkscape:connector-curvature="0"
       id="path4057"
       style="font-size:45.47621536px;font-style:normal;font-weight:normal;line-height:125%;letter-spacing:0px;word-spacing:0px;fill:#000000;fill-opacity:1;stroke:none;font-family:Sans"
       d="m 281.39361,479.87095 0,3.81929 c -1.15469,-0.63652 -2.31676,-1.11023 -3.48621,-1.42112 -1.15469,-0.32565 -2.32416,-0.48849 -3.50842,-0.48851 -2.64983,10e-6 -4.70751,0.84382 -6.17304,2.53139 -1.46555,1.67281 -2.19832,4.02655 -2.19832,7.06124 0,3.03472 0.73277,5.39586 2.19832,7.08345 1.46553,1.67279 3.52321,2.50919 6.17304,2.50919 1.18426,0 2.35373,-0.15544 3.50842,-0.46631 1.16945,-0.32568 2.33152,-0.80679 3.48621,-1.44334 l 0,3.77488 c -1.13989,0.53293 -2.32416,0.93262 -3.55283,1.19908 -1.2139,0.26646 -2.5092,0.39969 -3.88591,0.39969 -3.74528,0 -6.72077,-1.17687 -8.92648,-3.53062 -2.20572,-2.35374 -3.30858,-5.52908 -3.30857,-9.52602 -1e-5,-4.05613 1.11025,-7.24628 3.33077,-9.57044 2.23532,-2.32412 5.29223,-3.48619 9.17075,-3.48621 1.25827,2e-5 2.48696,0.13325 3.68606,0.39969 1.19906,0.25169 2.36113,0.63657 3.48621,1.15467" />
    <path
       inkscape:connector-curvature="0"
       id="path4061"
       style="font-size:45.47621536px;font-style:normal;font-weight:normal;line-height:125%;letter-spacing:0px;word-spacing:0px;fill:#000000;fill-opacity:1;stroke:none;font-family:Sans"
       d="m 337.01761,489.41918 0,15.01071 -4.08575,0 0,-14.87748 c -2e-5,-2.35373 -0.45893,-4.11533 -1.37672,-5.28483 -0.91784,-1.16945 -2.29456,-1.75419 -4.13017,-1.75421 -2.20572,2e-5 -3.94513,0.70318 -5.21821,2.1095 -1.27311,1.40635 -1.90966,3.32339 -1.90965,5.75113 l 0,14.05589 -4.10796,0 0,-24.86981 4.10796,0 0,3.8637 c 0.97702,-1.49513 2.12429,-2.61279 3.4418,-3.35298 1.3323,-0.74015 2.86446,-1.11024 4.59648,-1.11026 2.85704,2e-5 5.01835,0.88823 6.48391,2.66462 1.46552,1.76163 2.19829,4.35964 2.19831,7.79402" />
    <path
       inkscape:connector-curvature="0"
       id="path4063"
       style="font-size:45.47621536px;font-style:normal;font-weight:normal;line-height:125%;letter-spacing:0px;word-spacing:0px;fill:#000000;fill-opacity:1;stroke:none;font-family:Sans"
       d="m 349.25265,472.49883 0,7.06125 8.41576,0 0,3.17534 -8.41576,0 0,13.50075 c -1e-5,2.02809 0.27385,3.33078 0.82159,3.90811 0.56252,0.57735 1.69498,0.86601 3.39739,0.86601 l 4.19678,0 0,3.41959 -4.19678,0 c -3.15314,0 -5.32925,-0.58473 -6.52832,-1.75421 -1.19909,-1.18427 -1.79863,-3.33077 -1.79862,-6.4395 l 0,-13.50075 -2.9977,0 0,-3.17534 2.9977,0 0,-7.06125 4.10796,0" />
    <path
       inkscape:connector-curvature="0"
       id="path4065"
       style="font-size:45.47621536px;font-style:normal;font-weight:normal;line-height:125%;letter-spacing:0px;word-spacing:0px;fill:#000000;fill-opacity:1;stroke:none;font-family:Sans"
       d="m 377.47543,483.37937 c -0.45892,-0.26644 -0.96224,-0.45889 -1.50995,-0.57732 -0.53294,-0.13321 -1.12508,-0.19984 -1.77641,-0.19985 -2.30935,1e-5 -4.08577,0.755 -5.32925,2.26493 -1.22869,1.49516 -1.84303,3.64906 -1.84303,6.46171 l 0,13.10105 -4.10796,0 0,-24.8698 4.10796,0 0,3.8637 c 0.85859,-1.50994 1.97625,-2.6276 3.35299,-3.35298 1.3767,-0.74015 3.04949,-1.11024 5.01837,-1.11026 0.28125,10e-6 0.59212,0.0222 0.93262,0.0666 0.34046,0.0296 0.71794,0.0815 1.13246,0.15544 l 0.0222,4.19677" />
    <path
       inkscape:connector-curvature="0"
       id="path4069"
       style="font-size:45.47621536px;font-style:normal;font-weight:normal;line-height:125%;letter-spacing:0px;word-spacing:0px;fill:#000000;fill-opacity:1;stroke:none;font-family:Sans"
       d="m 408.62932,469.87862 4.08575,0 0,34.55126 -4.08575,0 0,-34.55126" />
    <path
       style="font-size:1197.36633301px;font-style:normal;font-weight:normal;line-height:125%;letter-spacing:0px;word-spacing:0px;fill:#66ff00;fill-opacity:1;stroke:#000000;stroke-width:1;stroke-miterlimit:4;stroke-opacity:1;stroke-dasharray:none;font-family:Sans"
       sodipodi:nodetypes="ccsccccccccscsccccccccccc"
       inkscape:connector-curvature="0"
       id="path4111"
       d="m 177.49364,357.24063 c -3.27054,6.80658 -4.44873,12.8232 -3.53458,18.04986 0.96373,5.20926 3.89329,8.98998 8.78868,11.34218 4.89533,2.35217 9.67765,2.27696 14.34696,-0.22565 4.68532,-2.53616 8.66326,-7.20752 11.93383,-14.01409 3.27045,-6.80656 4.42383,-12.81447 3.46013,-18.02375 -0.94771,-5.24275 -3.86922,-9.04024 -8.76453,-11.39246 -4.89541,-2.35215 -9.68578,-2.26017 -14.37111,0.27594 -4.63577,2.51878 -8.5889,7.18142 -11.85938,13.98797 m 22.08585,34.81759 c -3.55587,2.41855 -7.22058,3.73237 -10.99413,3.94148 -3.724,0.19167 -7.66483,-0.71137 -11.8225,-2.70911 -6.8066,-3.27052 -11.05081,-8.6528 -12.73265,-16.14683 -1.64835,-7.47792 -0.34588,-15.64282 3.90741,-24.49474 4.25326,-8.85186 9.81402,-14.97069 16.68232,-18.35649 6.90174,-3.3696 13.75592,-3.41917 20.56254,-0.14871 4.15765,1.9978 7.3171,4.52704 9.47837,7.58772 2.21077,3.04334 3.48301,6.7087 3.81672,10.99609 l 4.10828,-8.55012 13.86035,6.46298 -56.88146,108.22821 -37.92309,-26.5886 12.30463,-7.82424 21.7711,17.95458 23.86211,-50.35222" />
    <path
       sodipodi:type="arc"
       style="fill:#66ff00;stroke:#000000;stroke-width:9.5035038;stroke-miterlimit:4;stroke-opacity:1;stroke-dasharray:none"
       id="path4041"
       sodipodi:cx="219.70818"
       sodipodi:cy="242.72491"
       sodipodi:rx="24.748737"
       sodipodi:ry="24.748737"
       d="m 244.45691,242.72491 a 24.748737,24.748737 0 1 1 -49.49747,0 24.748737,24.748737 0 1 1 49.49747,0 z"
       transform="matrix(1.3679166,0,0,1.3679166,127.95841,27.25892)"
       inkscape:export-filename="/home/christian/Downloads/qskos_logo.png"
       inkscape:export-xdpi="178.53331"
       inkscape:export-ydpi="178.53331" />
    <path
       sodipodi:type="arc"
       style="fill:#66ff00;stroke:#000000;stroke-width:8.52681732;stroke-miterlimit:4;stroke-opacity:1;stroke-dasharray:none"
       id="path4041-8-7"
       sodipodi:cx="219.70818"
       sodipodi:cy="242.72491"
       sodipodi:rx="24.748737"
       sodipodi:ry="24.748737"
       d="m 244.45691,242.72491 a 24.748737,24.748737 0 1 1 -49.49747,0 24.748737,24.748737 0 1 1 49.49747,0 z"
       transform="matrix(0.4691082,0,0,0.4691082,278.98848,319.40391)"
       inkscape:export-filename="/home/christian/Downloads/qskos_logo.png"
       inkscape:export-xdpi="178.53331"
       inkscape:export-ydpi="178.53331" />
    <path
       sodipodi:type="arc"
       style="fill:#66ff00;stroke:#000000;stroke-width:8.52681732;stroke-miterlimit:4;stroke-opacity:1;stroke-dasharray:none"
       id="path4041-8-7-4"
       sodipodi:cx="219.70818"
       sodipodi:cy="242.72491"
       sodipodi:rx="24.748737"
       sodipodi:ry="24.748737"
       d="m 244.45691,242.72491 a 24.748737,24.748737 0 1 1 -49.49747,0 24.748737,24.748737 0 1 1 49.49747,0 z"
       transform="matrix(0.4691082,0,0,0.4691082,195.72448,376.9558)" />
    <path
       sodipodi:type="arc"
       style="fill:#66ff00;stroke:#000000;stroke-width:8.52681732;stroke-miterlimit:4;stroke-opacity:1;stroke-dasharray:none"
       id="path4041-8-7-4-6"
       sodipodi:cx="219.70818"
       sodipodi:cy="242.72491"
       sodipodi:rx="24.748737"
       sodipodi:ry="24.748737"
       d="m 244.45691,242.72491 a 24.748737,24.748737 0 1 1 -49.49747,0 24.748737,24.748737 0 1 1 49.49747,0 z"
       transform="matrix(0.4691082,0,0,0.4691082,288.36721,376.9558)" />
    <path
       style="fill:none;stroke:#000000;stroke-width:4;stroke-linecap:butt;stroke-linejoin:miter;stroke-miterlimit:4;stroke-opacity:1;stroke-dasharray:none"
       d="m 409.11178,386.67166 -28.28427,34.85026"
       id="path4276"
       inkscape:connector-curvature="0"
       sodipodi:nodetypes="cc"
       inkscape:export-filename="/home/christian/Downloads/qskos_logo.png"
       inkscape:export-xdpi="178.53331"
       inkscape:export-ydpi="178.53331" />
    <path
       style="fill:#ffcc00;stroke:#000000;stroke-width:4;stroke-linecap:butt;stroke-linejoin:miter;stroke-miterlimit:4;stroke-opacity:1;stroke-dasharray:none"
       d="m 373.25137,441.9775 -73.4886,36.87057"
       id="path4276-5"
       inkscape:connector-curvature="0"
       sodipodi:nodetypes="cc"
       inkscape:export-filename="/home/christian/Downloads/qskos_logo.png"
       inkscape:export-xdpi="178.53331"
       inkscape:export-ydpi="178.53331" />
    <path
       style="fill:none;stroke:#000000;stroke-width:4;stroke-linecap:butt;stroke-linejoin:miter;stroke-miterlimit:4;stroke-opacity:1;stroke-dasharray:none"
       d="m 379.81736,444.25035 9.59645,35.1028"
       id="path4276-0"
       inkscape:connector-curvature="0"
       sodipodi:nodetypes="cc"
       inkscape:export-filename="/home/christian/Downloads/qskos_logo.png"
       inkscape:export-xdpi="178.53331"
       inkscape:export-ydpi="178.53331" />
  </g>
</svg>
